<svg width="19" height="17" viewBox="0 0 19 17" fill="none" xmlns="http://www.w3.org/2000/svg">
<path d="M17.3156 5.61022L12.5367 4.91349L10.4007 0.582657C10.018 -0.189305 8.90911 -0.199118 8.52313 0.582657L6.38715 4.91349L1.60819 5.61022C0.751182 5.73452 0.407725 6.79106 1.02922 7.3962L4.48669 10.7653L3.66893 15.5247C3.52174 16.385 4.42781 17.0294 5.18669 16.627L9.46192 14.3798L13.7371 16.627C14.496 17.0261 15.4021 16.385 15.2549 15.5247L14.4371 10.7653L17.8946 7.3962C18.5161 6.79106 18.1726 5.73452 17.3156 5.61022ZM12.7526 10.2158L13.5278 14.7429L9.46192 12.6069L5.39603 14.7429L6.17127 10.2158L2.88062 7.01022L7.42734 6.34947L9.46192 2.22798L11.4965 6.34947L16.0432 7.01022L12.7526 10.2158Z" fill="#484848"/>
</svg>
