<svg width="100" height="26" viewBox="0 0 100 26" fill="none" xmlns="http://www.w3.org/2000/svg">
<path fill-rule="evenodd" clip-rule="evenodd" d="M86.2848 12.2749H83.8405L85.0267 8.89647L86.2848 12.2749ZM18.6856 8.46945L16.2135 10.9399L16.0908 11.061L14.7197 12.4336L13.4698 13.6836L13.3487 13.8063H13.3471L12.1887 14.963V14.9646L12.0677 15.0857C11.7208 15.4326 11.3363 15.7172 10.929 15.943C10.7228 16.0559 10.5118 16.1541 10.2958 16.2375C9.8148 16.424 9.30925 16.532 8.80043 16.5647C8.48794 16.586 8.17218 16.5778 7.86133 16.5385C7.1889 16.4584 6.5312 16.244 5.92913 15.8956C5.67226 15.7467 5.40722 15.5913 5.18798 15.3737C5.18635 15.3737 5.18635 15.3737 5.18471 15.372L0.445012 10.634C0.36648 10.5473 0.296129 10.454 0.23723 10.3526C0.0867118 10.0973 0 9.80285 0 9.48709C0 9.43801 0.00163607 9.38729 0.00654429 9.33984C0.0130886 9.26622 0.0245411 9.19587 0.0392657 9.12715L0.068715 9.01426C0.132522 8.80321 0.23723 8.60361 0.381205 8.42364C0.418834 8.37783 0.459736 8.33366 0.502274 8.28785L0.582442 8.20932L5.37613 3.414H5.37777L8.2818 0.508348C8.92968 -0.139535 9.96204 -0.168984 10.641 0.424908L18.6856 8.46945ZM74.0437 6.43582L76.3571 6.42764H79.1663C80.7107 6.42764 81.9754 7.69232 81.9754 9.23677V9.58362C81.9754 11.1297 80.7107 12.3077 79.1663 12.3535L77.8836 12.3927C78.9143 11.9183 79.3446 10.7223 79.217 9.64415C79.1139 8.77867 78.6689 7.94755 77.9261 7.93119L77.4582 7.92137V15.6223C77.4582 15.7729 77.4844 15.835 77.5629 15.9659C77.6889 16.1753 77.8558 16.3847 78.0292 16.5942C78.075 16.6482 78.1192 16.7021 78.165 16.7578H74.1795C74.24 16.6841 74.2973 16.6105 74.3529 16.5336C74.474 16.3684 74.5804 16.1933 74.6605 16.0003C74.7129 15.8743 74.7374 15.7827 74.7374 15.6485V7.37656C74.7227 6.94464 74.294 6.69923 74.0437 6.43582ZM93.1792 11.9526L89.5602 6.76467L89.1921 6.42764H92.7588L95.1752 10.3493L95.3699 10.1906L96.8309 8.0179C97.1909 7.48454 97.1418 6.86447 96.6297 6.426H100L96.1045 11.951L96.1029 15.9594L96.79 16.7758H92.6033L93.1923 15.9708C93.1939 14.6358 93.1465 13.2844 93.1792 11.9526ZM83.3546 6.42764C83.6426 6.82357 83.7293 6.96427 83.762 7.31603C83.7833 7.56144 83.7669 7.70214 83.6884 7.93119L80.997 15.7352C80.8711 16.0559 80.6109 16.4109 80.2313 16.7545H83.1681C82.9505 16.5614 82.8114 16.3308 82.7591 16.0575C82.7133 15.8072 82.7149 15.7123 82.7689 15.4718L83.3661 13.6182H86.7838L87.3172 15.0464C87.3728 15.197 87.4039 15.3344 87.4186 15.4964C87.4644 16.0297 87.2943 16.4682 86.8705 16.779H91.4761C91.0245 16.3766 90.609 15.9561 90.375 15.444L87.0129 6.42764H83.3546Z" fill="#005AAA"/>
<path fill-rule="evenodd" clip-rule="evenodd" d="M45.4662 8.13255L49.2439 5.9664L49.9883 7.33415L46.3481 8.67082L45.4662 8.13255ZM46.4315 15.2462V10.8762C46.4315 10.5425 46.3906 10.2889 46.3104 10.1155C46.2352 9.94859 46.1027 9.7768 45.9145 9.59847V9.53794H47.7993C48.0938 9.53794 48.3408 9.52485 48.5437 9.49867C48.7318 9.47904 48.9085 9.41687 49.0754 9.31707H49.1359V15.3067C49.1359 15.6519 49.1719 15.9153 49.2423 16.0969C49.3126 16.3047 49.4599 16.4896 49.6824 16.6516V16.7121H45.8818V16.6516C46.1207 16.4487 46.2728 16.2458 46.3383 16.0429C46.4004 15.8483 46.4315 15.5816 46.4315 15.2462ZM52.4359 6.38196H55.6524L58.3519 14.1238L60.6424 7.71045C60.685 7.46177 60.6473 7.37996 60.5524 7.16564C60.4248 6.9055 60.2907 6.65191 60.1631 6.39178H62.5665C62.4241 6.91532 62.2131 7.48958 62.0315 8.01803L58.9278 17.0344C58.0803 16.8659 57.1363 16.5305 56.4066 15.8384C55.8569 15.3182 55.6622 14.7259 55.3906 14.0191L52.7958 7.14764C52.696 6.87769 52.5701 6.63392 52.4359 6.38196ZM38.6634 14.3087L36.3909 8.03439C36.3353 7.88714 36.2797 7.7399 36.2241 7.59265C36.1373 7.37996 36.0637 7.21308 36.0032 7.09038C35.9116 6.90877 35.7643 6.70754 35.5615 6.48994V6.45886H39.097V6.52103L39.0659 6.61919C39.1068 6.89896 39.1853 7.2409 39.3015 7.64664L41.5233 14.1026L43.3737 8.44177L43.4653 8.17018L43.5602 7.84297C43.5749 7.77753 43.5847 7.72844 43.5897 7.69736C43.5946 7.66627 43.5962 7.62046 43.5962 7.55993C43.5962 7.12146 43.3639 6.7648 42.8976 6.48994V6.45886H45.6789V6.49812L42.0992 17.0393L40.8901 16.6205C40.6824 16.5452 40.4942 16.4683 40.3273 16.3931C40.1604 16.3162 40.0099 16.236 39.879 16.1493C39.6402 15.9922 39.4242 15.773 39.2295 15.4916C39.0348 15.2102 38.845 14.8159 38.6634 14.3087ZM65.2807 10.0091V15.5407C65.2807 15.7648 65.3331 15.8057 65.4705 15.9857L66.1036 16.8119H63.0753C63.2471 16.5518 63.4172 16.2916 63.5874 16.0315C63.7182 15.8172 63.7755 15.7435 63.7755 15.4949V7.76607L62.9248 6.38196H66.0627L71.1444 12.9262V7.71045C71.1444 7.46177 71.0953 7.37996 70.9628 7.16564C70.7926 6.9055 70.6143 6.65191 70.4441 6.39178H73.4692L72.8393 7.21799C72.7019 7.39796 72.6496 7.43722 72.6496 7.663V17.0769C71.5043 16.9264 70.436 16.645 69.487 15.4327L65.2807 10.0091ZM5.13869 15.3296C5.15342 15.3443 5.16814 15.3591 5.1845 15.3738C5.40374 15.5914 5.66878 15.7485 5.92891 15.8973C6.53099 16.2458 7.18869 16.4601 7.86112 16.5403C8.17197 16.5779 8.48773 16.5861 8.80022 16.5665C9.30904 16.5354 9.81459 16.4258 10.2956 16.2409C10.5116 16.1575 10.7226 16.0593 10.9288 15.9464C11.3361 15.7206 11.7206 15.436 12.0675 15.0891L12.1885 14.968V14.9664L13.3469 13.8097H13.3485L13.9342 13.2224L15.3052 11.8513L16.0906 11.0644L16.2133 10.9433L21.1935 5.96476L23.2467 3.73971L23.3694 3.61864C23.9961 2.99203 25.0137 2.99203 25.6403 3.61864L26.7643 4.74262H26.7659L26.8019 4.78025C26.3046 4.75735 25.8023 4.93568 25.426 5.30379L21.6205 9.04712L21.5812 9.09293L14.9633 15.6045L14.9535 15.5963L12.5141 17.9931L12.3505 18.1649C12.1591 18.3514 11.7566 18.7065 11.22 18.9601C10.9762 19.0746 10.7292 19.158 10.4837 19.2104C10.3381 19.2398 10.1892 19.2578 10.0436 19.2644H9.93238C9.54463 19.2644 9.16506 19.1776 8.80022 19.0108L7.65333 17.8672L7.18542 17.3976L5.04053 15.2298L5.13869 15.3296ZM32.8587 13.1029L27.3435 18.7016L21.6794 24.4523C21.4994 24.6339 21.3096 24.7959 21.11 24.9432C21.1035 24.9497 21.0953 24.9562 21.0871 24.9628C21.0593 24.9824 21.0331 25.0021 21.0037 25.0217C21.0004 25.025 20.9971 25.0266 20.9939 25.0299C20.1398 25.6418 19.0911 26.0001 17.9622 26.0001C16.5667 26.0001 15.3003 25.4536 14.3629 24.562L14.2336 24.4474L13.2585 23.474L10.5214 20.7352L9.48083 19.6946C9.62971 19.7192 9.78023 19.729 9.93075 19.729L10.0567 19.7274C10.2318 19.7208 10.4052 19.6996 10.577 19.6652C10.8568 19.6079 11.1398 19.5114 11.4179 19.3805C12.0167 19.0975 12.4634 18.7048 12.6744 18.497C12.7579 18.4152 12.82 18.3465 12.8462 18.3171L14.9519 16.2458L14.96 16.2556L22.198 9.13383L22.2373 9.08802L25.7516 5.62773C26.2244 5.16473 26.9639 5.10419 27.5022 5.47394L28.3349 6.3067C28.3366 6.3067 28.3366 6.30834 28.3366 6.30834L32.857 10.8288C32.8963 10.8697 32.9356 10.9106 32.9699 10.9531C33.4836 11.5863 33.4444 12.5172 32.8587 13.1029Z" fill="#ED1C24"/>
<path d="M17.9399 9.21375L17.4753 9.67675L16.6605 8.85708C16.5329 8.72783 16.5345 8.52005 16.6621 8.39408C16.7914 8.26646 16.9975 8.26646 17.1268 8.39571L17.9399 9.21375ZM16.5673 10.5864L16.1026 11.0478L13.5438 8.47097C12.5932 7.5155 11.2058 7.17847 9.92153 7.59404C9.74974 7.64966 9.56487 7.55641 9.50924 7.38462C9.45361 7.2112 9.5485 7.02632 9.72029 6.97069C11.2402 6.47824 12.8845 6.8758 14.0084 8.0096L16.5673 10.5864ZM13.8252 13.3301L13.3606 13.7947L10.7903 11.2048C10.6627 11.0772 10.6643 10.8695 10.7919 10.7402C10.9212 10.6126 11.129 10.6142 11.2566 10.7418L13.8252 13.3301ZM15.1946 11.9591L14.7299 12.4221L12.1662 9.83709C11.5412 9.20557 10.5171 9.20229 9.88717 9.82727C9.25728 10.4539 9.25238 11.4764 9.87899 12.1063L11.5314 13.7735C11.659 13.9011 11.659 14.1089 11.5298 14.2381C11.4022 14.3657 11.1944 14.3641 11.0651 14.2365L9.41271 12.571C8.5325 11.6826 8.53741 10.2445 9.4258 9.36263C10.3142 8.48242 11.7539 8.48897 12.6325 9.37572L15.1946 11.9591ZM10.9441 15.9364C10.9392 15.9396 10.9343 15.9413 10.9293 15.9445C10.7281 16.0542 10.5236 16.1507 10.3125 16.2325L8.03677 13.9387C6.61339 12.5039 6.41052 10.2559 7.5525 8.59204C7.65557 8.44316 7.86008 8.40553 8.00896 8.50696C8.15948 8.61004 8.19547 8.81455 8.09404 8.96343C7.13039 10.3672 7.30218 12.2634 8.50305 13.4741L10.9441 15.9364ZM15.3876 7.10976C15.26 7.23574 15.0506 7.23246 14.9214 7.10485C12.7879 4.95505 9.30309 4.94196 7.1533 7.07377C5.00513 9.20884 4.99041 12.692 7.12548 14.8418L8.79591 16.527C8.80736 16.5384 8.81882 16.5515 8.82536 16.5646C8.81718 16.5646 8.809 16.5663 8.80082 16.5663C8.49651 16.5875 8.18893 16.5793 7.88789 16.5433L6.66084 15.3048C4.27217 12.8998 4.2869 8.99779 6.69356 6.60912C9.10022 4.22046 13.0006 4.23682 15.3893 6.64348L15.3942 6.64839C15.5202 6.77436 15.5169 6.98051 15.3876 7.10976ZM70.5004 19.9038C70.5004 20.0936 70.3515 20.2392 70.1617 20.2392C69.9637 20.2392 69.8083 20.092 69.8083 19.9038C69.8083 19.7141 69.9637 19.5603 70.1617 19.5603C70.3531 19.5603 70.5004 19.7141 70.5004 19.9038ZM58.5734 20.591C58.4392 20.591 58.4245 20.5419 58.4033 20.4585C58.382 20.2621 58.5096 20.1787 58.7223 19.9546C58.7779 19.8989 58.8139 19.8498 58.8139 19.7942C58.8139 19.6748 58.7566 19.6192 58.6863 19.6126C58.6159 19.6061 58.4752 19.6273 58.3754 19.6748C58.2985 19.7026 58.2347 19.7026 58.184 19.5979L58.1562 19.5423C58.1137 19.4376 58.184 19.4016 58.2544 19.3672C58.4245 19.2969 58.5374 19.2821 58.6699 19.2821C58.9464 19.2821 59.1722 19.4376 59.1657 19.7942C59.1657 20.1018 58.755 20.2294 58.7337 20.4601C58.7337 20.5157 58.6781 20.5795 58.6061 20.5926H58.5734V20.591ZM80.2612 19.84C80.1548 19.6797 80.1843 19.6372 80.3741 19.6372H80.4444C80.6358 19.6372 80.7062 19.6797 80.7978 19.8482L81.0956 20.4159C81.1659 20.5566 81.1447 20.591 80.9892 20.591H80.9189C80.7847 20.591 80.6866 20.5354 80.6146 20.4225L80.2612 19.84ZM51.5825 20.4225C51.5121 20.5337 51.4123 20.591 51.2782 20.591H51.2078C51.0589 20.591 51.0246 20.5566 51.1015 20.4159L51.3976 19.8482C51.4892 19.6797 51.5612 19.6388 51.751 19.6388H51.8213C52.0128 19.6388 52.0406 19.6813 51.9342 19.8417L51.5825 20.4225ZM68.5453 22.1256C68.5453 21.6283 68.2344 21.3828 67.6192 21.3828C66.991 21.3828 66.6801 21.6283 66.6801 22.1256V22.2091C66.6801 22.713 66.9059 22.9649 67.6192 22.9649C68.3326 22.9649 68.5453 22.713 68.5453 22.2091V22.1256ZM77.2099 23.0353C77.2099 23.7077 77.4439 24.0087 78.2275 24.0087C78.9965 24.0087 79.2452 23.7077 79.2452 23.0353V22.3841C79.2452 21.7117 78.9981 21.4107 78.2275 21.4107C77.457 21.4107 77.2099 21.7117 77.2099 22.3841V23.0353ZM62.9384 22.8471H62.1122C61.4823 22.8471 61.1944 23.0156 61.1944 23.4557C61.1944 23.8549 61.4545 24.0513 61.9846 24.0513C62.6341 24.0513 62.9384 23.904 62.9384 23.3789V22.8471ZM73.46 22.8471H72.6338C72.0056 22.8471 71.716 23.0156 71.716 23.4557C71.716 23.8549 71.9777 24.0513 72.5078 24.0513C73.1574 24.0513 73.4617 23.904 73.4617 23.3789V22.8471H73.46ZM69.8934 21.2078C69.8934 21.0327 69.9294 20.9836 70.1192 20.9836H70.1961C70.3728 20.9836 70.4218 21.0327 70.4218 21.2078V24.2132C70.4218 24.403 70.3728 24.4374 70.1961 24.4374H70.1192C69.9277 24.4374 69.8934 24.403 69.8934 24.2132V21.2078ZM80.6702 21.2078C80.6702 21.0327 80.7193 20.9836 80.896 20.9836H80.9729C81.1643 20.9836 81.1986 21.0327 81.1986 21.2078V24.2132C81.1986 24.403 81.1627 24.4374 80.9729 24.4374H80.896C80.7193 24.4374 80.6702 24.403 80.6702 24.2132V21.2078ZM51.0246 21.2078C51.0246 21.0327 51.0737 20.9836 51.2503 20.9836H51.3289C51.5203 20.9836 51.5547 21.0327 51.5547 21.2078V24.2132C51.5547 24.403 51.5203 24.4374 51.3289 24.4374H51.2503C51.0737 24.4374 51.0246 24.403 51.0246 24.2132V21.2078ZM85.9449 19.7566C85.9449 19.5668 85.9956 19.5324 86.1707 19.5324H86.2492C86.4406 19.5324 86.475 19.5668 86.475 19.7566V21.3894C86.686 21.0736 87.0542 20.9133 87.5842 20.9133C88.453 20.9133 88.8898 21.319 88.8898 22.1387V24.2132C88.8898 24.403 88.8555 24.4374 88.664 24.4374H88.579C88.3875 24.4374 88.3532 24.403 88.3532 24.2132V22.2025C88.3532 21.6495 88.1061 21.4107 87.4501 21.4107C86.7727 21.4107 86.475 21.6773 86.475 22.3219V24.2132C86.475 24.403 86.439 24.4374 86.2492 24.4374H86.1707C85.9956 24.4374 85.9449 24.403 85.9449 24.2132V19.7566ZM82.6269 24.2132C82.6269 24.403 82.5909 24.4374 82.4012 24.4374H82.3226C82.1459 24.4374 82.0969 24.403 82.0969 24.2132V22.2221C82.0969 21.3452 82.5909 20.9117 83.5742 20.9117C84.6115 20.9117 85.0434 21.3747 85.0434 22.2221V24.2132C85.0434 24.403 85.0074 24.4374 84.8176 24.4374H84.7326C84.5428 24.4374 84.5068 24.403 84.5068 24.2132V22.2221C84.5068 21.661 84.2876 21.409 83.5742 21.409C82.8593 21.409 82.6269 21.6692 82.6269 22.2221V24.2132ZM49.5636 23.4705C49.4572 23.8697 49.3443 24.1429 49.2102 24.2901C49.076 24.4292 48.8633 24.4996 48.5606 24.4996C48.2563 24.4996 48.0387 24.4292 47.9046 24.2901C47.7704 24.1429 47.6575 23.8697 47.5512 23.4705L46.689 20.1198C46.6399 19.93 46.6743 19.8826 46.8722 19.8826H46.9507C47.1487 19.8826 47.2125 19.9316 47.2616 20.1198L48.1222 23.5326C48.2138 23.9188 48.3136 24.0087 48.5606 24.0087C48.7946 24.0087 48.8993 23.9171 48.9909 23.5326L49.8531 20.1198C49.9022 19.93 49.966 19.8826 50.164 19.8826H50.2409C50.4389 19.8826 50.4749 19.9316 50.4241 20.1198L49.5636 23.4705ZM80.3953 20.3947C80.3953 20.5419 80.3463 20.591 80.1974 20.591H79.7736V23.0435C79.7736 24.0169 79.2583 24.5077 78.2275 24.5077C77.1608 24.5077 76.6815 24.0169 76.6815 23.0435V22.3923C76.6815 21.4041 77.169 20.9133 78.1425 20.9133C78.6856 20.9133 79.0538 21.0818 79.2452 21.4254V20.591H78.2848C78.1228 20.591 78.0868 20.5419 78.0868 20.3947V20.339C78.0868 20.1918 78.1228 20.1427 78.2848 20.1427H79.2452V19.7582C79.2452 19.5684 79.2795 19.5341 79.471 19.5341H79.5495C79.7262 19.5341 79.7753 19.5684 79.7753 19.7582V20.1427H80.199C80.3479 20.1427 80.397 20.1918 80.397 20.339V20.3947H80.3953ZM54.1037 22.3629C54.1037 21.445 54.6043 20.9133 55.6792 20.9133C55.9132 20.9133 56.1177 20.9411 56.3009 21.0049C56.4694 21.0605 56.512 21.1096 56.512 21.2716V21.3419C56.512 21.517 56.4694 21.5661 56.3009 21.5105C56.1242 21.4467 55.9181 21.4123 55.6923 21.4123C54.9021 21.4123 54.6321 21.7199 54.6321 22.3727V23.0516C54.6321 23.7601 54.9495 24.012 55.7348 24.012C55.9737 24.012 56.1864 23.9842 56.3696 23.9204C56.5316 23.8648 56.5823 23.9204 56.5823 24.0955V24.1658C56.5823 24.313 56.5332 24.3687 56.3565 24.4178C56.1586 24.4816 55.941 24.5094 55.7005 24.5094C54.619 24.5094 54.1037 24.0464 54.1037 23.0598V22.3629ZM63.4669 23.4001C63.4669 24.1773 63.0088 24.5077 61.9912 24.5077C61.1797 24.5077 60.6643 24.1854 60.6643 23.4574C60.6643 22.7293 61.1437 22.4348 62.1057 22.4348H62.9384V22.0144C62.9384 21.5383 62.6129 21.3763 62.0124 21.3763C61.7016 21.3763 61.4414 21.4041 61.2353 21.4532C61.0651 21.4876 61.0095 21.4467 61.0095 21.2781V21.2225C61.0095 21.0605 61.0521 21.0196 61.2222 20.9836C61.4545 20.9346 61.7098 20.9133 61.9846 20.9133C62.9728 20.9133 63.4669 21.2781 63.4669 22.0127V23.4001ZM73.9885 23.4001C73.9885 24.1773 73.5304 24.5077 72.5127 24.5077C71.7012 24.5077 71.1859 24.1854 71.1859 23.4574C71.1859 22.7293 71.6653 22.4348 72.6256 22.4348H73.46V22.0144C73.46 21.5383 73.1344 21.3763 72.5356 21.3763C72.2248 21.3763 71.963 21.4041 71.7585 21.4532C71.5884 21.4876 71.5327 21.4467 71.5327 21.2781V21.2225C71.5327 21.0605 71.5753 21.0196 71.7454 20.9836C71.9794 20.9346 72.233 20.9133 72.5078 20.9133C73.496 20.9133 73.9901 21.2781 73.9901 22.0127V23.4001H73.9885ZM57.613 23.1972C57.613 23.7502 57.8454 24.0104 58.5587 24.0104C59.272 24.0104 59.4978 23.7584 59.4978 23.1972V21.2061C59.4978 21.0311 59.5469 20.982 59.7236 20.982H59.8021C59.9935 20.982 60.0279 21.0311 60.0279 21.2061V23.1972C60.0279 24.0447 59.596 24.5077 58.5587 24.5077C57.577 24.5077 57.0829 24.0742 57.0829 23.1972V21.2061C57.0829 21.0311 57.132 20.982 57.3087 20.982H57.3856C57.577 20.982 57.6114 21.0311 57.6114 21.2061V23.1972H57.613ZM66.9272 24.3605C66.7096 24.4652 66.5951 24.6615 66.5951 24.9348C66.5951 25.3896 66.8568 25.509 67.6192 25.509C68.3538 25.509 68.6369 25.3896 68.6369 24.9135C68.6369 24.4717 68.3767 24.3949 67.6192 24.3949C67.3166 24.3949 67.0826 24.3818 66.9272 24.3605ZM69.0819 22.2091C69.0819 23.0222 68.5943 23.4279 67.6192 23.4279C67.238 23.4279 66.991 23.4492 66.8716 23.4836C66.7587 23.5179 66.7014 23.5883 66.7014 23.6946C66.7014 23.7928 66.757 23.8566 66.8765 23.8909C66.9975 23.9188 67.2446 23.9335 67.6176 23.9335C68.205 23.9335 68.6058 24.0038 68.825 24.1511C69.0508 24.2918 69.1637 24.5356 69.1637 24.8939C69.1637 25.2931 69.0508 25.5663 68.8169 25.7282C68.5911 25.8886 68.1886 25.9671 67.616 25.9671C67.0303 25.9671 66.6196 25.8902 66.3938 25.7282C66.1746 25.5745 66.0617 25.329 66.0617 24.992C66.0617 24.655 66.1959 24.403 66.4576 24.2411C66.2662 24.1494 66.1681 23.9956 66.1681 23.7781C66.1681 23.4705 66.3595 23.2872 66.7407 23.2316C66.3447 23.0696 66.1484 22.7277 66.1484 22.2091V22.1256C66.1484 21.3616 66.6916 20.9133 67.6176 20.9133C67.8941 20.9133 68.133 20.9624 68.3457 21.0524L68.7481 20.6957C68.8676 20.591 68.9232 20.591 69.0377 20.6957L69.0868 20.7448C69.1997 20.8495 69.1997 20.9051 69.0868 21.018L68.7694 21.3403C68.9739 21.5301 69.0803 21.7886 69.0803 22.1256V22.2091H69.0819Z" fill="#009EDB"/>
</svg>
